<svg width="19" height="19" viewBox="0 0 19 19" fill="none" xmlns="http://www.w3.org/2000/svg">
<path d="M18.5966 6.91256C18.539 6.74274 18.4329 6.59353 18.2914 6.48335C18.1499 6.37316 17.9792 6.30681 17.8005 6.29251L12.5713 5.877L10.3085 0.867983C10.2364 0.706653 10.1192 0.569627 9.971 0.473442C9.82278 0.377257 9.64989 0.326025 9.4732 0.325928C9.29651 0.325831 9.12356 0.376874 8.97523 0.472896C8.82691 0.568918 8.70954 0.705815 8.6373 0.867066L6.37449 5.877L1.14533 6.29251C0.969643 6.30642 0.801681 6.37066 0.661543 6.47754C0.521405 6.58442 0.415026 6.7294 0.35513 6.89516C0.295235 7.06091 0.284361 7.24041 0.323808 7.41218C0.363256 7.58395 0.451355 7.74072 0.577566 7.86373L4.44187 11.6308L3.07519 17.5488C3.0337 17.7279 3.047 17.9154 3.11337 18.0869C3.17974 18.2584 3.29612 18.4059 3.44741 18.5105C3.5987 18.615 3.7779 18.6716 3.96178 18.673C4.14565 18.6744 4.3257 18.6205 4.47856 18.5183L9.4729 15.1888L14.4672 18.5183C14.6235 18.6221 14.8077 18.6755 14.9952 18.6713C15.1827 18.6672 15.3645 18.6058 15.516 18.4953C15.6675 18.3848 15.7816 18.2306 15.8429 18.0533C15.9041 17.8761 15.9097 17.6843 15.8587 17.5039L14.1811 11.6336L18.3416 7.88941C18.6141 7.64359 18.714 7.26019 18.5966 6.91256Z" fill="#F3CD03"/>
</svg>
